<svg xmlns="http://www.w3.org/2000/svg" xmlns:xlink="http://www.w3.org/1999/xlink" xmlns:fi="http://pattern.flaticon.com/" x="0" y="0" width="1920" height="1022" viewBox="0 0 1920 1022"><rect x="0px" y="0px" width="100%" height="100%" opacity="1" fill="#8a1196"/><defs><path d="M50.518,188.535h101.038l50.515-87.5l-50.515-87.5H50.518L0,101.035L50.518,188.535z M59.178,28.535h83.718l41.854,72.5  l-41.854,72.5H59.178l-41.858-72.5L59.178,28.535z" transform="matrix(0.2969253361225128 0 0 0.2969253361225128 169 160.999998912627)" id="L1_63"/><path d="M50.518,188.535h101.038l50.515-87.5l-50.515-87.5H50.518L0,101.035L50.518,188.535z M59.178,28.535h83.718l41.854,72.5  l-41.854,72.5H59.178l-41.858-72.5L59.178,28.535z" transform="matrix(0.2969253361225128 0 0 0.2969253361225128 116 13)" id="L1_64"/><path d="M50.518,188.535h101.038l50.515-87.5l-50.515-87.5H50.518L0,101.035L50.518,188.535z M59.178,28.535h83.718l41.854,72.5  l-41.854,72.5H59.178l-41.858-72.5L59.178,28.535z" transform="matrix(0.2969253361225128 0 0 0.2969253361225128 223 136)" id="L1_65"/><path d="M50.518,188.535h101.038l50.515-87.5l-50.515-87.5H50.518L0,101.035L50.518,188.535z M59.178,28.535h83.718l41.854,72.5  l-41.854,72.5H59.178l-41.858-72.5L59.178,28.535z" transform="matrix(0.2969253361225128 0 0 0.2969253361225128 297 337)" id="L1_66"/><path d="M50.518,188.535h101.038l50.515-87.5l-50.515-87.5H50.518L0,101.035L50.518,188.535z M59.178,28.535h83.718l41.854,72.5  l-41.854,72.5H59.178l-41.858-72.5L59.178,28.535z" transform="matrix(0.2969253361225128 0 0 0.2969253361225128 295 280.9999989126269)" id="L1_67"/><path d="M50.518,188.535h101.038l50.515-87.5l-50.515-87.5H50.518L0,101.035L50.518,188.535z M59.178,28.535h83.718l41.854,72.5  l-41.854,72.5H59.178l-41.858-72.5L59.178,28.535z" transform="matrix(0.2969253361225128 0 0 0.2969253361225128 264 73.99999891262695)" id="L1_68"/><path d="M510.432,249.597L388.297,38.537c-2.096-3.631-5.967-5.378-10.159-5.378H133.861c-4.192,0-8.063,1.747-10.159,5.378    L1.567,249.841c-2.09,3.631-2.09,7.976,0,11.607l122.135,211.535c2.096,3.632,5.967,5.858,10.159,5.858h244.276    c4.192,0,8.063-2.288,10.159-5.919l122.135-211.569C512.523,257.722,512.523,253.228,510.432,249.597z M371.369,455.384H140.63    L25.27,256.003L140.63,56.616h230.738l115.36,199.387L371.369,455.384z" transform="matrix(0.1171875 0 0 0.1171875 173 58)" id="L1_69"/><g transform="matrix(0.11718933284282684 0 0 0.11718933284282684 219 26)" id="L1_70"><path d="M135.939,462.211 15.859,255.996 135.939,49.781 376.037,49.781 496.133,255.996   376.037,462.211z" fill="#000000"/><path d="M509.839,248.017L389.758,41.802c-2.855-4.902-8.042-7.884-13.721-7.884H135.939  c-5.679,0-10.866,2.982-13.721,7.884L2.153,248.017c-2.871,4.949-2.871,11.025,0,15.958L122.218,470.19  c2.855,4.902,8.042,7.884,13.721,7.884h240.114c5.663,0,10.85-2.982,13.705-7.884l120.081-206.215  C512.71,259.042,512.71,252.95,509.839,248.017z M366.916,446.348H145.06L34.212,255.996L145.044,65.644h221.871l110.848,190.352  L366.916,446.348z" fill="#297bcc"/></g><g transform="matrix(0.11718933284282684 0 0 0.11718933284282684 26 204)" id="L1_71"><path d="M135.939,462.211 15.859,255.996 135.939,49.781 376.037,49.781 496.133,255.996   376.037,462.211z" fill="#000000"/><path d="M509.839,248.017L389.758,41.802c-2.855-4.902-8.042-7.884-13.721-7.884H135.939  c-5.679,0-10.866,2.982-13.721,7.884L2.153,248.017c-2.871,4.949-2.871,11.025,0,15.958L122.218,470.19  c2.855,4.902,8.042,7.884,13.721,7.884h240.114c5.663,0,10.85-2.982,13.705-7.884l120.081-206.215  C512.71,259.042,512.71,252.95,509.839,248.017z M366.916,446.348H145.06L34.212,255.996L145.044,65.644h221.871l110.848,190.352  L366.916,446.348z" fill="#297bcc"/></g></defs><g fi:class="KUsePattern"><pattern id="pattern_L1_63" width="350" height="350" patternUnits="userSpaceOnUse"><use xlink:href="#L1_63" x="-350" y="-350"/><use xlink:href="#L1_63" x="0" y="-350"/><use xlink:href="#L1_63" x="350" y="-350"/><use xlink:href="#L1_63" x="-350" y="0"/><use xlink:href="#L1_63" x="0" y="0"/><use xlink:href="#L1_63" x="350" y="0"/><use xlink:href="#L1_63" x="-350" y="350"/><use xlink:href="#L1_63" x="0" y="350"/><use xlink:href="#L1_63" x="350" y="350"/></pattern><rect x="0" y="0" width="100%" height="100%" fill="url(#pattern_L1_63)"/></g><g fi:class="KUsePattern"><pattern id="pattern_L1_64" width="350" height="350" patternUnits="userSpaceOnUse"><use xlink:href="#L1_64" x="-350" y="-350"/><use xlink:href="#L1_64" x="0" y="-350"/><use xlink:href="#L1_64" x="350" y="-350"/><use xlink:href="#L1_64" x="-350" y="0"/><use xlink:href="#L1_64" x="0" y="0"/><use xlink:href="#L1_64" x="350" y="0"/><use xlink:href="#L1_64" x="-350" y="350"/><use xlink:href="#L1_64" x="0" y="350"/><use xlink:href="#L1_64" x="350" y="350"/></pattern><rect x="0" y="0" width="100%" height="100%" fill="url(#pattern_L1_64)"/></g><g fi:class="KUsePattern"><pattern id="pattern_L1_65" width="350" height="350" patternUnits="userSpaceOnUse"><use xlink:href="#L1_65" x="-350" y="-350"/><use xlink:href="#L1_65" x="0" y="-350"/><use xlink:href="#L1_65" x="350" y="-350"/><use xlink:href="#L1_65" x="-350" y="0"/><use xlink:href="#L1_65" x="0" y="0"/><use xlink:href="#L1_65" x="350" y="0"/><use xlink:href="#L1_65" x="-350" y="350"/><use xlink:href="#L1_65" x="0" y="350"/><use xlink:href="#L1_65" x="350" y="350"/></pattern><rect x="0" y="0" width="100%" height="100%" fill="url(#pattern_L1_65)"/></g><g fi:class="KUsePattern"><pattern id="pattern_L1_66" width="350" height="350" patternUnits="userSpaceOnUse"><use xlink:href="#L1_66" x="-350" y="-350"/><use xlink:href="#L1_66" x="0" y="-350"/><use xlink:href="#L1_66" x="350" y="-350"/><use xlink:href="#L1_66" x="-350" y="0"/><use xlink:href="#L1_66" x="0" y="0"/><use xlink:href="#L1_66" x="350" y="0"/><use xlink:href="#L1_66" x="-350" y="350"/><use xlink:href="#L1_66" x="0" y="350"/><use xlink:href="#L1_66" x="350" y="350"/></pattern><rect x="0" y="0" width="100%" height="100%" fill="url(#pattern_L1_66)"/></g><g fi:class="KUsePattern"><pattern id="pattern_L1_67" width="350" height="350" patternUnits="userSpaceOnUse"><use xlink:href="#L1_67" x="-350" y="-350"/><use xlink:href="#L1_67" x="0" y="-350"/><use xlink:href="#L1_67" x="350" y="-350"/><use xlink:href="#L1_67" x="-350" y="0"/><use xlink:href="#L1_67" x="0" y="0"/><use xlink:href="#L1_67" x="350" y="0"/><use xlink:href="#L1_67" x="-350" y="350"/><use xlink:href="#L1_67" x="0" y="350"/><use xlink:href="#L1_67" x="350" y="350"/></pattern><rect x="0" y="0" width="100%" height="100%" fill="url(#pattern_L1_67)"/></g><g fi:class="KUsePattern"><pattern id="pattern_L1_68" width="350" height="350" patternUnits="userSpaceOnUse"><use xlink:href="#L1_68" x="-350" y="-350"/><use xlink:href="#L1_68" x="0" y="-350"/><use xlink:href="#L1_68" x="350" y="-350"/><use xlink:href="#L1_68" x="-350" y="0"/><use xlink:href="#L1_68" x="0" y="0"/><use xlink:href="#L1_68" x="350" y="0"/><use xlink:href="#L1_68" x="-350" y="350"/><use xlink:href="#L1_68" x="0" y="350"/><use xlink:href="#L1_68" x="350" y="350"/></pattern><rect x="0" y="0" width="100%" height="100%" fill="url(#pattern_L1_68)"/></g><g fi:class="KUsePattern"><pattern id="pattern_L1_69" width="350" height="350" patternUnits="userSpaceOnUse"><use xlink:href="#L1_69" x="-350" y="-350"/><use xlink:href="#L1_69" x="0" y="-350"/><use xlink:href="#L1_69" x="350" y="-350"/><use xlink:href="#L1_69" x="-350" y="0"/><use xlink:href="#L1_69" x="0" y="0"/><use xlink:href="#L1_69" x="350" y="0"/><use xlink:href="#L1_69" x="-350" y="350"/><use xlink:href="#L1_69" x="0" y="350"/><use xlink:href="#L1_69" x="350" y="350"/></pattern><rect x="0" y="0" width="100%" height="100%" fill="url(#pattern_L1_69)"/></g><g fi:class="KUsePattern"><pattern id="pattern_L1_70" width="350" height="350" patternUnits="userSpaceOnUse"><use xlink:href="#L1_70" x="-350" y="-350"/><use xlink:href="#L1_70" x="0" y="-350"/><use xlink:href="#L1_70" x="350" y="-350"/><use xlink:href="#L1_70" x="-350" y="0"/><use xlink:href="#L1_70" x="0" y="0"/><use xlink:href="#L1_70" x="350" y="0"/><use xlink:href="#L1_70" x="-350" y="350"/><use xlink:href="#L1_70" x="0" y="350"/><use xlink:href="#L1_70" x="350" y="350"/></pattern><rect x="0" y="0" width="100%" height="100%" fill="url(#pattern_L1_70)"/></g><g fi:class="KUsePattern"><pattern id="pattern_L1_71" width="350" height="350" patternUnits="userSpaceOnUse"><use xlink:href="#L1_71" x="-350" y="-350"/><use xlink:href="#L1_71" x="0" y="-350"/><use xlink:href="#L1_71" x="350" y="-350"/><use xlink:href="#L1_71" x="-350" y="0"/><use xlink:href="#L1_71" x="0" y="0"/><use xlink:href="#L1_71" x="350" y="0"/><use xlink:href="#L1_71" x="-350" y="350"/><use xlink:href="#L1_71" x="0" y="350"/><use xlink:href="#L1_71" x="350" y="350"/></pattern><rect x="0" y="0" width="100%" height="100%" fill="url(#pattern_L1_71)"/></g></svg>