<?xml version="1.0" encoding="utf-8"?><svg xml:space="preserve" viewBox="0 0 100 100" y="0" x="0" xmlns="http://www.w3.org/2000/svg" id="Layer_1" version="1.1" width="47px" height="47px" xmlns:xlink="http://www.w3.org/1999/xlink" style="width:100%;height:100%;background-size:initial;background-repeat-y:initial;background-repeat-x:initial;background-position-y:initial;background-position-x:initial;background-origin:initial;background-image:initial;background-color:rgb(241, 242, 243);background-clip:initial;background-attachment:initial;animation-play-state:paused" ><g class="ldl-scale" style="transform-origin:50% 50%;transform:rotate(0deg) scale(0.8, 0.8);animation-play-state:paused" ><g style="animation-play-state:paused" ><path fill="#e15c64" d="M47.2 34.7c1.3 2.3 3.6 3.7 6 4 1-2.3.9-4.9-.4-7.2s-3.6-3.7-6-4c-1 2.3-.9 4.9.4 7.2z" style="fill:rgb(255, 255, 255);animation-play-state:paused" ></path>
<path fill="#f47e5f" d="M39.9 38.2c2.3 1.3 5 1.4 7.2.4-.3-2.4-1.7-4.7-4-6-2.3-1.3-5-1.4-7.2-.4.3 2.4 1.7 4.7 4 6z" style="fill:rgb(40, 41, 47);animation-play-state:paused" ></path>
<path fill="#f7b26a" d="M35.4 44.8c2.7 0 5-1.3 6.5-3.2-1.5-2-3.8-3.2-6.5-3.2s-5 1.3-6.5 3.2c1.5 1.9 3.8 3.2 6.5 3.2z" style="fill:rgb(10, 10, 10);animation-play-state:paused" ></path>
<path fill="#e15c64" d="M34.7 52.8c2.3-1.3 3.7-3.6 4-6-2.3-1-4.9-.9-7.2.4s-3.7 3.6-4 6c2.3 1 4.9.9 7.2-.4z" style="fill:rgb(255, 255, 255);animation-play-state:paused" ></path>
<path fill="#f47e5f" d="M38.2 60.1c1.3-2.3 1.4-5 .4-7.2-2.4.3-4.7 1.7-6 4-1.3 2.3-1.4 5-.4 7.2 2.4-.3 4.7-1.7 6-4z" style="fill:rgb(40, 41, 47);animation-play-state:paused" ></path>
<path fill="#f7b26a" d="M44.8 64.6c0-2.7-1.3-5-3.2-6.5-2 1.5-3.2 3.8-3.2 6.5s1.3 5 3.2 6.5c1.9-1.5 3.2-3.8 3.2-6.5z" style="fill:rgb(10, 10, 10);animation-play-state:paused" ></path>
<path fill="#e15c64" d="M52.8 65.3c-1.3-2.3-3.6-3.7-6-4-1 2.3-.9 4.9.4 7.2s3.6 3.7 6 4c1-2.3.9-4.9-.4-7.2z" style="fill:rgb(255, 255, 255);animation-play-state:paused" ></path>
<path fill="#f47e5f" d="M60.1 61.8c-2.3-1.3-5-1.4-7.2-.4.3 2.4 1.7 4.7 4 6 2.3 1.3 5 1.4 7.2.4-.3-2.4-1.7-4.7-4-6z" style="fill:rgb(40, 41, 47);animation-play-state:paused" ></path>
<path fill="#f7b26a" d="M64.6 55.2c-2.7 0-5 1.3-6.5 3.2 1.5 2 3.8 3.2 6.5 3.2s5-1.3 6.5-3.2c-1.5-1.9-3.8-3.2-6.5-3.2z" style="fill:rgb(10, 10, 10);animation-play-state:paused" ></path>
<path fill="#e15c64" d="M65.3 47.2c-2.3 1.3-3.7 3.6-4 6 2.3 1 4.9.9 7.2-.4s3.7-3.6 4-6c-2.3-1-4.9-.9-7.2.4z" style="fill:rgb(255, 255, 255);animation-play-state:paused" ></path>
<path fill="#f47e5f" d="M61.8 39.9c-1.3 2.3-1.4 5-.4 7.2 2.4-.3 4.7-1.7 6-4 1.3-2.3 1.4-5 .4-7.2-2.4.3-4.7 1.7-6 4z" style="fill:rgb(40, 41, 47);animation-play-state:paused" ></path>
<path fill="#f7b26a" d="M55.2 35.4c0 2.7 1.3 5 3.2 6.5 2-1.5 3.2-3.8 3.2-6.5s-1.3-5-3.2-6.5c-1.9 1.5-3.2 3.8-3.2 6.5z" style="fill:rgb(10, 10, 10);animation-play-state:paused" ></path></g>
<g style="animation-play-state:paused" ><path fill="#e15c64" d="M44.7 21.2c2.5 4.3 6.8 7 11.4 7.5 1.8-4.3 1.7-9.3-.8-13.7-2.5-4.3-6.8-7-11.4-7.5-1.8 4.3-1.7 9.3.8 13.7z" style="fill:rgb(255, 255, 255);animation-play-state:paused" ></path>
<path fill="#f47e5f" d="M31 27.7c4.3 2.5 9.4 2.6 13.7.8-.6-4.6-3.2-8.9-7.5-11.4s-9.4-2.6-13.7-.8c.5 4.6 3.2 8.9 7.5 11.4z" style="fill:rgb(40, 41, 47);animation-play-state:paused" ></path>
<path fill="#f7b26a" d="M22.4 40.2c5 0 9.5-2.4 12.2-6.1-2.8-3.7-7.2-6.1-12.2-6.1s-9.5 2.4-12.2 6.1c2.7 3.7 7.2 6.1 12.2 6.1z" style="fill:rgb(10, 10, 10);animation-play-state:paused" ></path>
<path fill="#e15c64" d="M21.2 55.3c4.3-2.5 7-6.8 7.5-11.4-4.3-1.8-9.3-1.7-13.7.8-4.3 2.5-7 6.8-7.5 11.4 4.3 1.8 9.3 1.7 13.7-.8z" style="fill:rgb(255, 255, 255);animation-play-state:paused" ></path>
<path fill="#f47e5f" d="M27.7 69c2.5-4.3 2.6-9.4.8-13.7-4.6.6-8.9 3.2-11.4 7.5s-2.6 9.4-.8 13.7c4.6-.5 8.9-3.2 11.4-7.5z" style="fill:rgb(40, 41, 47);animation-play-state:paused" ></path>
<path fill="#f7b26a" d="M40.2 77.6c0-5-2.4-9.5-6.1-12.2-3.7 2.8-6.1 7.2-6.1 12.2s2.4 9.5 6.1 12.2c3.7-2.7 6.1-7.2 6.1-12.2z" style="fill:rgb(10, 10, 10);animation-play-state:paused" ></path>
<path fill="#e15c64" d="M55.3 78.8c-2.5-4.3-6.8-7-11.4-7.5-1.8 4.3-1.7 9.3.8 13.7 2.5 4.3 6.8 7 11.4 7.5 1.8-4.3 1.7-9.3-.8-13.7z" style="fill:rgb(255, 255, 255);animation-play-state:paused" ></path>
<path fill="#f47e5f" d="M69 72.3c-4.3-2.5-9.4-2.6-13.7-.8.6 4.6 3.2 8.9 7.5 11.4s9.4 2.6 13.7.8c-.5-4.6-3.2-8.9-7.5-11.4z" style="fill:rgb(40, 41, 47);animation-play-state:paused" ></path>
<path fill="#f7b26a" d="M77.6 59.8c-5 0-9.5 2.4-12.2 6.1 2.8 3.7 7.2 6.1 12.2 6.1s9.5-2.4 12.2-6.1c-2.7-3.7-7.2-6.1-12.2-6.1z" style="fill:rgb(10, 10, 10);animation-play-state:paused" ></path>
<path fill="#e15c64" d="M78.8 44.7c-4.3 2.5-7 6.8-7.5 11.4 4.3 1.8 9.3 1.7 13.7-.8 4.3-2.5 7-6.8 7.5-11.4-4.3-1.8-9.3-1.7-13.7.8z" style="fill:rgb(255, 255, 255);animation-play-state:paused" ></path>
<path fill="#f47e5f" d="M72.3 31c-2.5 4.3-2.6 9.4-.8 13.7 4.6-.6 8.9-3.2 11.4-7.5s2.6-9.4.8-13.7c-4.6.5-8.9 3.2-11.4 7.5z" style="fill:rgb(40, 41, 47);animation-play-state:paused" ></path>
<path fill="#f7b26a" d="M59.8 22.4c0 5 2.4 9.5 6.1 12.2 3.7-2.8 6.1-7.2 6.1-12.2s-2.4-9.5-6.1-12.2c-3.7 2.7-6.1 7.2-6.1 12.2z" style="fill:rgb(10, 10, 10);animation-play-state:paused" ></path></g>
<metadata xmlns:d="https://loading.io/stock/" style="animation-play-state:paused" ><d:name style="animation-play-state:paused" >leaf</d:name>


<d:tags style="animation-play-state:paused" >flower,plant,petal,leaflet,blossom,herb,leaf,spinner</d:tags>


<d:license style="animation-play-state:paused" >by</d:license>


<d:slug style="animation-play-state:paused" >xh0e6e</d:slug></metadata></g><!-- generated by https://loading.io/ --></svg>