<?xml version="1.0" standalone="no"?>
<!DOCTYPE svg PUBLIC "-//W3C//DTD SVG 20010904//EN"
 "http://www.w3.org/TR/2001/REC-SVG-20010904/DTD/svg10.dtd">
<svg version="1.0" xmlns="http://www.w3.org/2000/svg"
 width="500.000000pt" height="500.000000pt" viewBox="0 0 500.000000 500.000000"
 preserveAspectRatio="xMidYMid meet">
<metadata>
Created by potrace 1.16, written by Peter Selinger 2001-2019
</metadata>
<g transform="translate(0.000000,500.000000) scale(0.100000,-0.100000)"
fill="#000000" stroke="none">
<path d="M3038 4843 c55 -66 108 -152 132 -214 50 -125 63 -284 35 -421 -19
-92 -99 -255 -161 -326 -164 -187 -421 -279 -663 -238 -112 20 -189 50 -280
110 -272 181 -394 530 -291 830 29 86 85 186 136 244 25 28 41 52 35 52 -15 0
-160 -113 -203 -157 -59 -62 -148 -193 -183 -268 -70 -151 -96 -266 -96 -436
0 -131 18 -233 62 -353 16 -44 29 -81 29 -83 0 -2 -74 -3 -164 -3 -91 0 -167
-3 -169 -7 -2 -5 115 -213 260 -463 146 -250 267 -461 270 -467 4 -10 -21 -13
-107 -13 -64 0 -110 -4 -108 -9 8 -22 923 -1601 928 -1601 8 1 920 1585 920
1598 0 8 -32 12 -105 12 -58 0 -105 2 -105 5 0 2 121 214 269 469 148 256 266
467 263 470 -3 4 -81 6 -173 6 l-168 0 25 55 c55 126 69 206 68 395 0 160 -3
183 -27 263 -50 164 -125 298 -228 411 -45 49 -216 186 -233 186 -4 0 11 -21
32 -47z m-1354 -1408 c115 -160 304 -301 493 -366 73 -25 203 -49 265 -49 28
0 48 -4 46 -10 -1 -5 -50 -93 -108 -195 l-105 -184 -196 -1 -195 0 -129 223
c-71 122 -184 318 -251 435 l-123 212 129 0 128 0 46 -65z m1829 -117 c-58
-101 -171 -297 -251 -435 l-146 -253 -196 0 -195 0 -112 193 -111 192 83 7
c188 15 400 100 552 223 71 57 193 198 210 242 4 10 39 13 139 13 l133 0 -106
-182z m-943 -554 c36 -64 67 -120 68 -125 2 -5 -58 -9 -142 -9 l-145 0 72 125
c39 69 74 125 77 125 3 0 34 -52 70 -116z m-399 -784 c178 -308 326 -560 329
-560 3 0 151 252 329 560 l323 560 65 0 65 0 -31 -52 c-17 -29 -191 -333 -388
-675 -197 -342 -361 -619 -365 -615 -8 9 -758 1311 -765 1329 -4 10 9 13 55
13 l60 0 323 -560z m31 528 c-11 -18 -41 -70 -67 -115 -25 -46 -50 -85 -54
-87 -6 -4 -125 189 -139 226 -2 4 60 8 138 8 l142 0 -20 -32z m571 -100 l75
-133 -345 -3 c-190 -1 -348 -1 -350 2 -2 2 11 30 30 62 19 33 53 92 76 132
l42 72 198 0 199 0 75 -132z m285 124 c-12 -28 -133 -232 -138 -232 -5 0 -32
44 -110 183 l-32 57 142 0 c78 0 140 -3 138 -8z m-220 -381 c-165 -290 -334
-580 -338 -580 -4 0 -222 373 -333 571 l-39 68 372 0 372 0 -34 -59z"/>
</g>
</svg>
