<svg id="Capa_1" enable-background="new 0 0 512 512" height="512" viewBox="0 0 512 512" width="512" xmlns="http://www.w3.org/2000/svg"><g><path d="m406 50.229v-50.229h-300v50.229l-30 45v32.271h15v-22.5h45v274.777l120 56 120-56v-274.777h45v347h-330v-309.5h-15v369.5h277.5v-15h-262.5v-30h330v30h-22.5v15h37.5v-416.771zm-257.906 9.771-10 30h-40.58l20-30zm15.812 0h184.188l10 30h-204.188zm2.094-15v-30h180v30zm197.905 15h30.581l20 30h-40.58zm27.095-15h-30v-30h30zm-240-30v30h-30v-30zm210 355.224-105 49-105-49v-265.224h210z"/><path d="m368.5 497h15v15h-15z"/><path d="m179.637 223.611c7.3 25.763 24.128 44.074 50.034 54.477 2.341 4.842 5.343 9.658 9.013 14.44l1.504 1.959 2.374.682c7.669 2.205 14.967 3.305 21.878 3.305 14.425 0 27.159-4.797 38.023-14.356 33.612-29.575 36.518-94.29 32.683-119.271l-1.221-7.952-7.847 1.774c-14.508 3.281-40.968 13.774-63.391 30.435-20.844-23.223-49.705-29.634-71.216-34.401-1.468-.326-2.902-.643-4.296-.958l-7.847-1.774-1.221 7.952c-2.491 16.23-5.043 40.489 1.53 63.688zm141.565-48.039c.763 11.719.23 28.317-3.341 45.714-3.349 16.315-10.458 38.506-25.307 51.571-11.625 10.229-25.859 13.035-43.453 8.546-10.616-14.73-13.215-29.004-7.95-43.566 6.725-18.601 24.774-33.338 38.731-42.425 14.883-9.69 30.135-16.261 41.32-19.84zm-129.37-5.421c19.619 4.397 42.676 10.362 59.274 28.509-10.634 9.792-19.405 21.198-24.062 34.078-3.12 8.63-4.176 17.258-3.19 25.84-34.186-20.28-35.749-57.952-32.022-88.427z"/><path d="m226 344.749h60v15h-60z"/><path d="m226 314.749h60v15h-60z"/><path d="m391 120h15v15h-15z"/><path d="m391 150h15v15h-15z"/></g></svg>