<svg id="Capa_1" enable-background="new 0 0 512 512" height="512" viewBox="0 0 512 512" width="512" xmlns="http://www.w3.org/2000/svg"><g><path d="m346 206c5.522 0 10-4.477 10-10v-40c0-16.542-13.458-30-30-30h-30v-86c0-22.056-17.944-40-40-40s-40 17.944-40 40v86h-30c-16.542 0-30 13.458-30 30v40c0 5.523 4.477 10 10 10h30v41.006c-22.795 4.646-40 24.847-40 48.994v206c0 5.523 4.477 10 10 10h180c5.522 0 10-4.477 10-10v-206c0-24.146-17.205-44.348-40-48.994v-41.006zm-110-166c0-11.028 8.972-20 20-20s20 8.972 20 20v86h-40zm-60 256c0-16.542 13.458-30 30-30h20v40h-50zm40-50v-40h80v40zm120 246h-160v-166h50v61.716c0 20.911 8.143 40.569 22.929 55.355 1.953 1.952 4.511 2.929 7.071 2.929s5.118-.977 7.071-2.929c14.786-14.786 22.929-34.445 22.929-55.355v-61.716h50zm0-196v10h-50v-40h20c16.542 0 30 13.458 30 30zm-160-110v-30c0-5.514 4.486-10 10-10h140c5.514 0 10 4.486 10 10v30z"/></g></svg>